<?xml version="1.0" encoding="UTF-8"?>
<svg viewBox="0 0 900 600" xmlns="http://www.w3.org/2000/svg" role="img" aria-label="Bandera de la Gran Colombia">
<rect width="900" height="300" fill="#FCD116"/><rect y="300" width="900" height="150" fill="#003893"/><rect y="450" width="900" height="150" fill="#CE1126"/><path d="M120.0,393.1 L124.6,405.3 L137.7,405.9 L127.4,414.1 L130.9,426.7 L120.0,419.5 L109.1,426.7 L112.6,414.1 L102.3,405.9 L115.4,405.3 Z" fill="#fff"/><path d="M180.0,368.9 L184.6,381.1 L197.7,381.7 L187.4,389.9 L190.9,402.5 L180.0,395.3 L169.1,402.5 L172.6,389.9 L162.3,381.7 L175.4,381.1 Z" fill="#fff"/><path d="M240.0,347.2 L244.6,359.4 L257.7,360.0 L247.4,368.2 L250.9,380.8 L240.0,373.6 L229.1,380.8 L232.6,368.2 L222.3,360.0 L235.4,359.4 Z" fill="#fff"/><path d="M300.0,329.4 L304.6,341.7 L317.7,342.3 L307.4,350.5 L310.9,363.1 L300.0,355.9 L289.1,363.1 L292.6,350.5 L282.3,342.3 L295.4,341.7 Z" fill="#fff"/><path d="M360.0,316.9 L364.6,329.2 L377.7,329.8 L367.4,337.9 L370.9,350.6 L360.0,343.3 L349.1,350.6 L352.6,337.9 L342.3,329.8 L355.4,329.2 Z" fill="#fff"/><path d="M420.0,310.4 L424.6,322.7 L437.7,323.3 L427.4,331.4 L430.9,344.1 L420.0,336.8 L409.1,344.1 L412.6,331.4 L402.3,323.3 L415.4,322.7 Z" fill="#fff"/><path d="M480.0,310.4 L484.6,322.7 L497.7,323.3 L487.4,331.4 L490.9,344.1 L480.0,336.8 L469.1,344.1 L472.6,331.4 L462.3,323.3 L475.4,322.7 Z" fill="#fff"/><path d="M540.0,316.9 L544.6,329.2 L557.7,329.8 L547.4,337.9 L550.9,350.6 L540.0,343.3 L529.1,350.6 L532.6,337.9 L522.3,329.8 L535.4,329.2 Z" fill="#fff"/><path d="M600.0,329.4 L604.6,341.7 L617.7,342.3 L607.4,350.5 L610.9,363.1 L600.0,355.9 L589.1,363.1 L592.6,350.5 L582.3,342.3 L595.4,341.7 Z" fill="#fff"/><path d="M660.0,347.2 L664.6,359.4 L677.7,360.0 L667.4,368.2 L670.9,380.8 L660.0,373.6 L649.1,380.8 L652.6,368.2 L642.3,360.0 L655.4,359.4 Z" fill="#fff"/><path d="M720.0,368.9 L724.6,381.1 L737.7,381.7 L727.4,389.9 L730.9,402.5 L720.0,395.3 L709.1,402.5 L712.6,389.9 L702.3,381.7 L715.4,381.1 Z" fill="#fff"/><path d="M780.0,393.1 L784.6,405.3 L797.7,405.9 L787.4,414.1 L790.9,426.7 L780.0,419.5 L769.1,426.7 L772.6,414.1 L762.3,405.9 L775.4,405.3 Z" fill="#fff"/></svg>